<svg id="Layer_1" data-name="Layer 1" xmlns="http://www.w3.org/2000/svg" xmlns:xlink="http://www.w3.org/1999/xlink" viewBox="0 0 2735.56 1008"><defs><style>.cls-1{fill:#95bf1b;}.cls-1,.cls-2,.cls-3,.cls-5,.cls-6{fill-rule:evenodd;}.cls-2{fill:#fcbc00;}.cls-3{fill:url(#GradientFill_1);}.cls-4{fill:#006db5;}.cls-5{fill:#00a653;}.cls-6{fill:#1a1a18;}.cls-7{fill:#163f93;}.cls-8{fill:#559731;}</style><linearGradient id="GradientFill_1" x1="335.8" y1="614.29" x2="318.64" y2="870.17" gradientUnits="userSpaceOnUse"><stop offset="0" stop-color="#006db5"/><stop offset="1" stop-color="#008bd2"/></linearGradient></defs><title>New logo-01</title><path class="cls-1" d="M255,717c20.84-28.1,26.75-92.64,19.52-126.18-7.82-36.25-28.25-66-48.41-85.39-35.74-34.37-114.9-74.92-184.81-80.69-22.57,41,1.74,160.89,20.06,198.4,13.81,28.28,31.17,47.81,52.75,64.52C156.58,720.57,205,718.31,255,717Z"/><path class="cls-2" d="M46.1,403.61C85.19,349.54,106.89,316.28,163.32,282a391.27,391.27,0,0,1,49.9-25.62V222.68A327.94,327.94,0,0,0,159.59,254C121.46,281.45,60.32,345,46.1,403.61ZM492,256.41a321.45,321.45,0,0,1,49.1,28.1c34.41,23.92,104.32,87.94,114.5,125.35C645,352.67,582.67,285.17,549.36,260.19A341.07,341.07,0,0,0,492,225.38Z"/><path class="cls-3" d="M301.18,626.42l-.29-53.74c-.4-74.67-164-168.71-230.4-168.55C150.81,394,297.38,453,350.81,518.69c52.86-66,197.85-124.75,278.51-114.56-27.39-.07-109.48,33.11-142.33,54.67-27.94,24.71-83,66.31-87.74,108.43l.12,210.64c-.8,29.5-11.92,65.09-32.46,84.89-24.88,24-51.65,26.83-92.1,18,9.91-25.62,21.75-23.59,25.49-91.85,1.57-33.54.44-69.34.46-103.12,0-17-.17-34.17,0-51.18q0-4.15.41-8.2ZM159.52,805.54l-4.14.16-33.24,0,.57,11.38c10.71,82.92,71.82,90.25,158.13,87.59l-5.63-3.56c-37.92-19.23-56.89-41-59.73-95.54Z"/><ellipse class="cls-4" cx="349.99" cy="432.19" rx="46.2" ry="54.25"/><path class="cls-5" d="M321,269v85.44a7.72,7.72,0,0,0,7.67,7.67h47.9a7.72,7.72,0,0,0,7.68-7.67V269h0v-4.88h90.31a7.7,7.7,0,0,0,7.67-7.67v-47.9a7.7,7.7,0,0,0-7.67-7.68H384.22V110.53a7.7,7.7,0,0,0-7.68-7.67h-47.9a7.7,7.7,0,0,0-7.67,7.67v90.31H230.66a7.72,7.72,0,0,0-7.68,7.68v47.9a7.72,7.72,0,0,0,7.68,7.67H321V269Z"/><path class="cls-1" d="M445.55,717C424.7,688.93,418.8,624.39,426,590.85c7.82-36.25,28.25-66,48.41-85.39,35.74-34.37,114.9-74.92,184.81-80.69,22.58,41-1.74,160.89-20.06,198.4C625.37,651.45,608,671,586.43,687.69,544,720.57,495.6,718.31,445.55,717Z"/><path class="cls-6" d="M2601.17,306.8V267H2587V258.9h38V267h-14.12V306.8Zm30,0V258.9h14.53l8.59,32.67,8.48-32.67h14.57v47.9h-9l0-37.71-9.45,37.71h-9.32l-9.4-37.71,0,37.71Z"/><path class="cls-6" d="M2632.14,211.66a71,71,0,0,1,50.33,20.85h0a71.17,71.17,0,0,1,0,100.66l0,0a71.17,71.17,0,0,1-100.66,0v0a71.15,71.15,0,0,1,0-100.66h0a71,71,0,0,1,50.33-20.85Zm44.66,26.53a63.19,63.19,0,1,0,18.49,44.66A63,63,0,0,0,2676.8,238.19Z"/><path class="cls-7" d="M780.57,369.51h26.78V500.9c0,52.14-27.09,68.17-62.8,68.17-9.85,0-21.85-2-28.63-4.66l4-20.69a67,67,0,0,0,22.47,3.79c24,0,38.17-10.2,38.17-48.65Z"/><path class="cls-7" d="M885.54,504.1,864,565.86h-27.7l70.49-196.35h32.33l70.8,196.35H981.28L959.12,504.1Zm68-19.81-20.31-56.52c-4.62-12.81-7.7-24.47-10.78-35.83h-.61c-3.08,11.65-6.47,23.6-10.47,35.54l-20.32,56.81Z"/><path class="cls-7" d="M1040.38,565.86V369.51h29.25l66.49,99.34a548.35,548.35,0,0,1,37.25,63.8l.62-.29c-2.47-26.22-3.08-50.11-3.08-80.7V369.51h25.24V565.86h-27.09l-65.88-99.63c-14.46-21.85-28.32-44.28-38.78-65.55l-.93.29c1.54,24.76,2.16,48.36,2.16,81v83.9Z"/><path class="cls-7" d="M1276.49,504.1,1255,565.86h-27.71l70.49-196.35h32.33l70.8,196.35h-28.63l-22.16-61.76Zm68-19.81-20.32-56.52c-4.62-12.81-7.7-24.47-10.78-35.83h-.61c-3.08,11.65-6.47,23.6-10.47,35.54L1282,484.29Z"/><path class="cls-7" d="M1431.34,372.13c13.54-2.62,32.93-4.08,51.41-4.08,28.62,0,47.1,4.95,60,16,10.47,8.74,16.32,22.15,16.32,37.29,0,25.93-17.24,43.12-39.1,50.11v.88c16,5.24,25.56,19.22,30.48,39.62,6.77,27.38,11.7,46.32,16,53.89h-27.71c-3.38-5.53-8-22.43-13.85-46.9-6.16-27.09-17.24-37.29-41.56-38.17h-25.24v85.07h-26.78Zm26.78,89.44h27.4c28.62,0,46.79-14.86,46.79-37.29,0-25.35-19.4-36.42-47.72-36.71-12.93,0-22.16,1.17-26.47,2.33Z"/><path class="cls-7" d="M1775.19,465.65c0,67.58-43.41,103.42-96.36,103.42-54.79,0-93.27-40.21-93.27-99.64,0-62.34,40.94-103.13,96.35-103.13C1738.56,366.3,1775.19,407.38,1775.19,465.65Zm-161,3.2c0,41.95,24,79.53,66.18,79.53,42.49,0,66.5-37,66.5-81.57,0-39-21.55-79.82-66.19-79.82C1636.35,387,1614.19,425.73,1614.19,468.85Z"/><path class="cls-7" d="M1967.89,557.12a202.93,202.93,0,0,1-63.72,10.78c-31.4,0-57.26-7.57-77.58-25.93-17.85-16.31-28.93-42.53-28.93-73.12.31-58.56,42.79-101.38,112.36-101.38,24,0,42.79,4.95,51.72,9l-6.47,20.68c-11.08-4.66-24.93-8.44-45.87-8.44-50.48,0-83.42,29.71-83.42,78.95,0,49.81,31.71,79.24,80,79.24,17.54,0,29.55-2.33,35.71-5.25V483.13h-42.18v-20.4h68.34Z"/><path class="cls-7" d="M2055,565.86V482.54l-65.57-113h30.48l29.24,54.18c8,14.86,14.16,26.81,20.63,40.5h.61c5.85-12.82,12.93-25.64,20.93-40.5l29.86-54.18h30.48L2082.1,482.25v83.61Z"/><path class="cls-7" d="M2184,504.1l-21.55,61.76h-27.7l70.49-196.35h32.33l70.8,196.35h-28.63l-22.17-61.76Zm68-19.81-20.31-56.52c-4.62-12.81-7.7-24.47-10.78-35.83h-.61c-3.08,11.65-6.47,23.6-10.47,35.54l-20.32,56.81Z"/><path class="cls-7" d="M2512.46,479.63c-1.54-27.39-3.39-60.31-3.08-84.78h-.93c-7.08,23-15.7,47.49-26.16,74.58l-36.64,95.27h-20.31l-33.56-93.52c-9.85-27.67-18.16-53-24-76.33h-.62c-.61,24.47-2.15,57.39-4,86.82l-5.54,84.19h-25.55l14.47-196.35h34.17l35.4,95c8.62,24.18,15.7,45.74,20.93,66.13h.93c5.23-19.81,12.62-41.37,21.85-66.13l37-95h34.17l12.93,196.35h-26.17Z"/><path class="cls-8" d="M816,789.63a104,104,0,0,1-34.5,6.21c-17,0-31-4.37-42-15-9.67-9.4-15.67-24.52-15.67-42.16C724,705,747,680.28,784.63,680.28c13,0,23.17,2.85,28,5.21l-3.5,11.92c-6-2.69-13.5-4.87-24.83-4.87-27.33,0-45.16,17.13-45.16,45.52,0,28.72,17.16,45.69,43.33,45.69,9.5,0,16-1.35,19.33-3V747H779V735.2h37Z"/><path class="cls-8" d="M896.3,741.59H852.64V782.4H901.3v12.27H838.14V681.45H898.8v12.27H852.64v35.77H896.3Z"/><path class="cls-8" d="M920.14,794.67V681.45H936l36,57.28a322.91,322.91,0,0,1,20.17,36.79l.33-.17c-1.33-15.12-1.67-28.89-1.67-46.53V681.45h13.67V794.67H989.8l-35.66-57.45c-7.84-12.6-15.34-25.53-21-37.79l-.5.16c.83,14.28,1.16,27.89,1.16,46.7v48.38Z"/><path class="cls-8" d="M1088,741.59H1044.3V782.4H1093v12.27H1029.8V681.45h60.67v12.27H1044.3v35.77H1088Z"/><path class="cls-8" d="M1111.81,683c7.33-1.52,17.83-2.35,27.83-2.35,15.5,0,25.5,2.85,32.5,9.23,5.66,5,8.83,12.77,8.83,21.5,0,14.95-9.33,24.86-21.17,28.89v.51c8.67,3,13.84,11.08,16.5,22.84,3.67,15.79,6.34,26.71,8.67,31.08h-15c-1.83-3.2-4.33-12.94-7.5-27-3.33-15.62-9.33-21.5-22.5-22H1126.3v49h-14.49Zm14.49,51.56h14.84c15.5,0,25.33-8.56,25.33-21.5,0-14.61-10.5-21-25.83-21.16-7,0-12,.67-14.34,1.34Z"/><path class="cls-8" d="M1216,681.45V794.67h-14.5V681.45Z"/><path class="cls-8" d="M1319.8,791c-5.33,2.69-16,5.37-29.66,5.37-31.67,0-55.5-20.15-55.5-57.27,0-35.44,23.83-59.46,58.66-59.46,14,0,22.84,3,26.67,5l-3.5,11.92a52.43,52.43,0,0,0-22.67-4.7c-26.33,0-43.83,17-43.83,46.69,0,27.72,15.84,45.52,43.17,45.52,8.83,0,17.83-1.84,23.66-4.7Z"/><path class="cls-8" d="M1373.31,682.8a166.32,166.32,0,0,1,27.83-2.18c14.33,0,24.83,3.35,31.5,9.4,6.16,5.38,9.83,13.61,9.83,23.68,0,10.25-3,18.31-8.67,24.19-7.66,8.23-20.16,12.43-34.33,12.43a49.6,49.6,0,0,1-11.67-1v45.36h-14.49Zm14.49,54.59a48.32,48.32,0,0,0,12,1.17c17.5,0,28.17-8.56,28.17-24.18,0-15-10.5-22.18-26.5-22.18a60.5,60.5,0,0,0-13.67,1.18Z"/><path class="cls-8" d="M1462,683c7.34-1.52,17.84-2.35,27.84-2.35,15.5,0,25.5,2.85,32.5,9.23,5.66,5,8.83,12.77,8.83,21.5,0,14.95-9.33,24.86-21.17,28.89v.51c8.67,3,13.84,11.08,16.5,22.84,3.67,15.79,6.33,26.71,8.67,31.08h-15c-1.83-3.2-4.33-12.94-7.5-27-3.33-15.62-9.33-21.5-22.5-22h-13.67v49H1462Zm14.5,51.56h14.84c15.5,0,25.33-8.56,25.33-21.5,0-14.61-10.5-21-25.83-21.16-7,0-12,.67-14.34,1.34Z"/><path class="cls-8" d="M1566.14,681.45V794.67h-14.5V681.45Z"/><path class="cls-8" d="M1616.14,794.67l-36.67-113.22h15.67l17.5,55.77c4.83,15.29,9,29.06,12,42.33h.33c3.17-13.1,7.84-27.38,12.84-42.16l19-55.94h15.49l-40.16,113.22Z"/><path class="cls-8" d="M1702.64,759.06,1691,794.67h-15l38.16-113.22h17.5L1770,794.67h-15.5l-12-35.61Zm36.83-11.43-11-32.58c-2.49-7.39-4.16-14.11-5.83-20.66h-.33c-1.67,6.72-3.5,13.6-5.67,20.49l-11,32.75Z"/><path class="cls-8" d="M1807.81,693.88h-34.16V681.45h83.16v12.43h-34.33V794.67h-14.67Z"/><path class="cls-8" d="M1927.48,741.59h-43.67V782.4h48.67v12.27h-63.17V681.45H1930v12.27h-46.17v35.77h43.67Z"/><path class="cls-8" d="M1986.64,681.45h14.5V782.4h48v12.27h-62.5Z"/><path class="cls-8" d="M2079.81,681.45V794.67h-14.5V681.45Z"/><path class="cls-8" d="M2199.81,745c-.83-15.79-1.83-34.77-1.67-48.88h-.5c-3.83,13.27-8.5,27.38-14.16,43L2163.64,794h-11l-18.16-53.91c-5.34-16-9.84-30.57-13-44h-.34c-.33,14.11-1.16,33.09-2.16,50l-3,48.55h-13.83L2110,681.45h18.5l19.16,54.76c4.67,13.94,8.5,26.37,11.34,38.13h.5c2.83-11.42,6.83-23.85,11.83-38.13l20-54.76h18.5l7,113.22h-14.17Z"/><path class="cls-8" d="M2253.65,681.45V794.67h-14.51V681.45Z"/><path class="cls-8" d="M2300.31,693.88h-34.16V681.45h83.16v12.43H2315V794.67h-14.67Z"/><path class="cls-8" d="M2420,741.59h-43.67V782.4H2425v12.27h-63.17V681.45h60.67v12.27h-46.17v35.77H2420Z"/><path class="cls-8" d="M2443.81,683a205.47,205.47,0,0,1,30.84-2.35c20.83,0,35.66,4.87,45.49,14.1,10,9.24,15.84,22.34,15.84,40.65,0,18.48-5.67,33.6-16.17,44-10.5,10.58-27.83,16.29-49.66,16.29a232.43,232.43,0,0,1-26.34-1.34Zm14.5,100.1a89.84,89.84,0,0,0,14.67.85c31,0,47.83-17.47,47.83-48,.17-26.71-14.83-43.68-45.5-43.68a81.69,81.69,0,0,0-17,1.52Z"/></svg>